<svg width="60" height="61" viewBox="0 0 60 61" fill="none" xmlns="http://www.w3.org/2000/svg">
<rect y="0.5" width="60" height="60" rx="6" fill="#FFF5EA"/>
<g clip-path="url(#clip0_126_1401)">
<path d="M45.5556 19.3889H38.8889V14.9444C38.8889 13.7657 38.4206 12.6352 37.5871 11.8017C36.7536 10.9683 35.6232 10.5 34.4444 10.5H25.5556C24.3768 10.5 23.2464 10.9683 22.4129 11.8017C21.5794 12.6352 21.1111 13.7657 21.1111 14.9444V19.3889H14.4444C13.2657 19.3889 12.1352 19.8571 11.3017 20.6906C10.4683 21.5241 10 22.6546 10 23.8333V46.0556C10 47.2343 10.4683 48.3648 11.3017 49.1983C12.1352 50.0317 13.2657 50.5 14.4444 50.5H45.5556C46.7343 50.5 47.8648 50.0317 48.6983 49.1983C49.5317 48.3648 50 47.2343 50 46.0556V23.8333C50 22.6546 49.5317 21.5241 48.6983 20.6906C47.8648 19.8571 46.7343 19.3889 45.5556 19.3889ZM23.3333 17.1667C23.3333 16.5773 23.5675 16.0121 23.9842 15.5953C24.401 15.1786 24.9662 14.9444 25.5556 14.9444H34.4444C35.0338 14.9444 35.599 15.1786 36.0158 15.5953C36.4325 16.0121 36.6667 16.5773 36.6667 17.1667V19.3889H23.3333V17.1667Z" fill="#9A4E1C"/>
<path d="M50 32.7222C50 33.901 49.5317 35.0314 48.6983 35.8649C47.8648 36.6984 46.7343 37.1667 45.5556 37.1667H14.4444C13.2657 37.1667 12.1352 36.6984 11.3017 35.8649C10.4683 35.0314 10 33.901 10 32.7222V23.8333C10 22.6546 10.4683 21.5241 11.3017 20.6906C12.1352 19.8571 13.2657 19.3889 14.4444 19.3889H45.5556C46.7343 19.3889 47.8648 19.8571 48.6983 20.6906C49.5317 21.5241 50 22.6546 50 23.8333V32.7222Z" fill="#662113"/>
<path d="M50 30.5C50 31.6787 49.5317 32.8092 48.6983 33.6427C47.8648 34.4762 46.7343 34.9444 45.5556 34.9444H14.4444C13.2657 34.9444 12.1352 34.4762 11.3017 33.6427C10.4683 32.8092 10 31.6787 10 30.5V23.8333C10 22.6546 10.4683 21.5241 11.3017 20.6906C12.1352 19.8571 13.2657 19.3889 14.4444 19.3889H45.5556C46.7343 19.3889 47.8648 19.8571 48.6983 20.6906C49.5317 21.5241 50 22.6546 50 23.8333V30.5Z" fill="#9A4E1C"/>
<path d="M34.4436 30.5C34.4436 31.0894 34.2094 31.6546 33.7927 32.0713C33.376 32.4881 32.8107 32.7222 32.2214 32.7222H27.7769C27.1875 32.7222 26.6223 32.4881 26.2056 32.0713C25.7888 31.6546 25.5547 31.0894 25.5547 30.5C25.5547 29.9106 25.7888 29.3454 26.2056 28.9286C26.6223 28.5119 27.1875 28.2778 27.7769 28.2778H32.2214C32.8107 28.2778 33.376 28.5119 33.7927 28.9286C34.2094 29.3454 34.4436 29.9106 34.4436 30.5Z" fill="#CCD6DD"/>
</g>
<defs>
<clipPath id="clip0_126_1401">
<rect width="40" height="40" fill="white" transform="translate(10 10.5)"/>
</clipPath>
</defs>
</svg>
