<svg width="60" height="60" viewBox="0 0 60 60" fill="none" xmlns="http://www.w3.org/2000/svg">
<rect width="60" height="60" rx="6" fill="#FFF5EA"/>
<path d="M13.75 23.75H46.25V47.5H33.7575L30.0062 46.0037L26.255 47.5H13.75V23.75Z" fill="#9B9B9B"/>
<path d="M12.5 23.75C12.5 23.0625 13.0625 22.5 13.75 22.5H46.25C46.9375 22.5 47.5 23.0625 47.5 23.75C47.5 24.4375 46.9375 25 46.25 25H13.75C13.0625 25 12.5 24.4375 12.5 23.75Z" fill="#F8312F"/>
<path d="M40 47.5H33.775L30.0062 46.2513L26.2375 47.5H20V15.25C20 13.7375 21.225 12.5 22.75 12.5H37.25C38.7625 12.5 40 13.725 40 15.25V47.5Z" fill="#D3D3D3"/>
<path d="M33.7117 18.8C33.7117 17.975 34.0367 17.175 34.6242 16.5875C34.7367 16.475 34.6492 16.2625 34.4867 16.25L31.6742 16.2625C31.6357 16.2604 31.5974 16.2702 31.5647 16.2906C31.5319 16.3111 31.5062 16.3411 31.4912 16.3767C31.4762 16.4122 31.4725 16.4515 31.4806 16.4893C31.4888 16.527 31.5083 16.5613 31.5367 16.5875C32.1092 17.16 32.4442 17.935 32.4617 18.7375C31.8463 18.1295 31.0646 17.7172 30.2153 17.5527C29.366 17.3881 28.4869 17.4786 27.6889 17.8128C26.8909 18.147 26.2097 18.7098 25.7311 19.4305C25.2524 20.1512 24.9978 20.9974 24.9992 21.8625C24.9992 23.0875 25.4992 24.2 26.3367 24.9875H24.3867C24.0367 24.9875 23.7617 25.275 23.7617 25.6125C23.7617 25.9625 24.0492 26.2375 24.3867 26.2375L29.3867 26.225C29.5992 26.225 29.8117 26.2125 30.0117 26.175C30.9439 26.0431 31.8081 25.6124 32.4746 24.9475C33.1411 24.2825 33.5739 23.4193 33.708 22.4875H33.7242V22.3912C33.7509 22.2112 33.7634 22.0267 33.7617 21.8375C33.7588 21.6477 33.745 21.4582 33.7205 21.27L33.7117 18.8ZM32.4705 21.3425L32.4742 22.3387C32.3581 23.0751 31.9836 23.746 31.4179 24.2313C30.8522 24.7166 30.1321 24.9847 29.3867 24.9875C28.5568 24.9875 27.7606 24.6587 27.1726 24.073C26.5845 23.4873 26.2525 22.6924 26.2492 21.8625C26.2492 21.0325 26.5781 20.2364 27.1637 19.6484C27.7494 19.0603 28.5443 18.7283 29.3742 18.725C30.9267 18.725 32.2255 19.8588 32.4705 21.3425Z" fill="#FF822D"/>
<path d="M24.375 32.5H28.1375C28.475 32.5 28.75 32.225 28.7625 31.875V29.3625C28.7625 29.0125 28.475 28.7375 28.1375 28.7375H24.375C24.025 28.7375 23.75 29.025 23.75 29.3625V31.875C23.75 32.225 24.0375 32.5 24.375 32.5ZM17.9875 36.25H15.7625C15.3375 36.25 15 35.9125 15 35.4875V29.5125C15 29.0875 15.3375 28.75 15.7625 28.75H17.9875C18.4125 28.75 18.75 29.0875 18.75 29.5125V35.4875C18.7375 35.9125 18.4 36.25 17.9875 36.25ZM42.0125 36.25H44.2375C44.65 36.25 44.9875 35.9125 45 35.4875V29.5125C45 29.0875 44.6625 28.75 44.2375 28.75H42.0125C41.5875 28.75 41.25 29.0875 41.25 29.5125V35.4875C41.25 35.9125 41.5875 36.25 42.0125 36.25ZM28.125 37.5H24.3625C24.025 37.5 23.7375 37.225 23.7375 36.875V34.3625C23.7375 34.025 24.0125 33.7375 24.3625 33.7375H28.125C28.4625 33.7375 28.75 34.0125 28.75 34.3625V36.875C28.7375 37.225 28.4625 37.5 28.125 37.5ZM35.625 37.5H31.8625C31.525 37.5 31.2375 37.225 31.2375 36.875V34.3625C31.2375 34.025 31.5125 33.7375 31.8625 33.7375H35.625C35.9625 33.7375 36.25 34.0125 36.25 34.3625V36.875C36.2375 37.225 35.9625 37.5 35.625 37.5ZM31.875 32.5H35.6375C35.975 32.5 36.25 32.225 36.2625 31.875V29.3625C36.2625 29.0125 35.975 28.7375 35.6375 28.7375H31.875C31.525 28.7375 31.25 29.025 31.25 29.3625V31.875C31.25 32.225 31.5375 32.5 31.875 32.5Z" fill="#83CBFF"/>
<path d="M20 12.5C19.3125 12.5 18.75 13.0625 18.75 13.75C18.75 14.4375 19.3125 15 20 15H40C40.6875 15 41.25 14.4375 41.25 13.75C41.25 13.0625 40.6875 12.5 40 12.5H20ZM22.5 47.5V42.5C22.5 41.8125 22.225 41.1875 21.775 40.725C21.3125 40.275 20.6875 40 20 40C19.337 40 18.7011 40.2634 18.2322 40.7322C17.7634 41.2011 17.5 41.837 17.5 42.5V47.5H18.75V46.9375C18.75 46.5625 19.0625 46.25 19.4375 46.25H20.5625C20.9375 46.25 21.25 46.5625 21.25 46.9375V47.5H22.5Z" fill="#F8312F"/>
<path d="M26.25 47.5H33.7625V41.725C33.7625 40.775 32.9875 40 32.0375 40H27.9625C27.0125 40 26.25 40.7625 26.25 41.7125V47.5ZM19.375 42.5H20.625C20.975 42.5 21.25 42.225 21.25 41.875C21.25 41.525 20.975 41.25 20.625 41.25H19.375C19.025 41.25 18.75 41.525 18.75 41.875C18.75 42.225 19.025 42.5 19.375 42.5Z" fill="#1C1C1C"/>
</svg>
