<svg width="50" height="51" viewBox="0 0 50 51" fill="none" xmlns="http://www.w3.org/2000/svg">
<path d="M16.6667 15.0833H10.4167C9.3116 15.0833 8.25179 15.5223 7.47039 16.3037C6.68899 17.0851 6.25 18.1449 6.25 19.25V27.5833M16.6667 15.0833H33.3333M16.6667 15.0833V10.9167C16.6667 9.8116 17.1057 8.75179 17.8871 7.97039C18.6685 7.18899 19.7283 6.75 20.8333 6.75H29.1667C30.2717 6.75 31.3315 7.18899 32.1129 7.97039C32.8943 8.75179 33.3333 9.8116 33.3333 10.9167V15.0833M6.25 27.5833V40.0833C6.25 41.1884 6.68899 42.2482 7.47039 43.0296C8.25179 43.811 9.3116 44.25 10.4167 44.25H39.5833C40.6884 44.25 41.7482 43.811 42.5296 43.0296C43.311 42.2482 43.75 41.1884 43.75 40.0833V27.5833M6.25 27.5833C6.25 27.5833 14.5833 31.75 25 31.75C35.4167 31.75 43.75 27.5833 43.75 27.5833M33.3333 15.0833H39.5833C40.6884 15.0833 41.7482 15.5223 42.5296 16.3037C43.311 17.0851 43.75 18.1449 43.75 19.25V27.5833M25 23.4167H25.0208" stroke="#1C3F85" stroke-width="3" stroke-linecap="round" stroke-linejoin="round"/>
</svg>
