<svg width="50" height="51" viewBox="0 0 50 51" fill="none" xmlns="http://www.w3.org/2000/svg">
<path d="M24.9993 42.1666C29.4196 42.1666 33.6589 40.4107 36.7845 37.2851C39.9101 34.1595 41.666 29.9202 41.666 25.5C41.666 21.0797 39.9101 16.8405 36.7845 13.7148C33.6589 10.5892 29.4196 8.83329 24.9993 8.83329C20.5791 8.83329 16.3398 10.5892 13.2142 13.7148C10.0886 16.8405 8.33268 21.0797 8.33268 25.5C8.33268 29.9202 10.0886 34.1595 13.2142 37.2851C16.3398 40.4107 20.5791 42.1666 24.9993 42.1666ZM24.9993 4.66663C27.7352 4.66663 30.4443 5.2055 32.9719 6.25247C35.4995 7.29944 37.7962 8.83401 39.7307 10.7686C41.6653 12.7031 43.1999 14.9998 44.2468 17.5274C45.2938 20.055 45.8327 22.7641 45.8327 25.5C45.8327 31.0253 43.6377 36.3243 39.7307 40.2313C35.8237 44.1384 30.5247 46.3333 24.9993 46.3333C13.4785 46.3333 4.16602 36.9583 4.16602 25.5C4.16602 19.9746 6.36095 14.6756 10.268 10.7686C14.175 6.86156 19.474 4.66663 24.9993 4.66663ZM26.041 15.0833V26.0208L35.416 31.5833L33.8535 34.1458L22.916 27.5833V15.0833H26.041Z" fill="#1C3F85"/>
</svg>
