<svg width="60" height="60" viewBox="0 0 60 60" fill="none" xmlns="http://www.w3.org/2000/svg">
<rect width="60" height="60" rx="6" fill="#FFF5EA"/>
<path fill-rule="evenodd" clip-rule="evenodd" d="M22.5 21.0425V14.4037C22.4977 14.2289 22.4264 14.0621 22.3016 13.9396C22.1768 13.8171 22.0086 13.749 21.8337 13.75H18.1788C18.0911 13.7478 18.0039 13.7631 17.9222 13.7949C17.8406 13.8266 17.766 13.8743 17.7029 13.9351C17.6397 13.9959 17.5893 14.0687 17.5545 14.1491C17.5196 14.2295 17.5011 14.3161 17.5 14.4037V25.2112L16.25 26.2525V46.2525H43.75V27.5025L30.0875 14.715L22.5 21.0425Z" fill="#F3C07B"/>
<path d="M29.9 43.7537H20.1C20.05 43.7537 20 43.7037 20 43.6537V30.4912C20 29.5537 20.7625 28.7912 21.7 28.7912H28.3125C29.25 28.7912 30.0125 29.5537 30.0125 30.4912V43.6537C30 43.7037 29.95 43.7537 29.9 43.7537Z" fill="#8C5543"/>
<path d="M28.125 36.2525C28.2908 36.2525 28.4497 36.1867 28.5669 36.0694C28.6842 35.9522 28.75 35.7933 28.75 35.6275C28.75 35.4617 28.6842 35.3028 28.5669 35.1856C28.4497 35.0683 28.2908 35.0025 28.125 35.0025C27.9592 35.0025 27.8003 35.0683 27.6831 35.1856C27.5658 35.3028 27.5 35.4617 27.5 35.6275C27.5 35.7933 27.5658 35.9522 27.6831 36.0694C27.8003 36.1867 27.9592 36.2525 28.125 36.2525Z" fill="#402A32"/>
<path d="M29.95 45.0025H20C19.3125 45.0025 18.75 44.44 18.75 43.7525C18.75 43.065 19.3125 42.5025 20 42.5025H29.95C30.6375 42.5025 31.2 43.065 31.2 43.7525C31.2 44.44 30.6375 45.0025 29.95 45.0025Z" fill="#D3D3D3"/>
<path d="M47.5 46.2525H12.5V46.14C12.5 44.815 13.5625 43.7525 14.8875 43.7525H45.1125C46.425 43.7525 47.5 44.815 47.5 46.14V46.2525Z" fill="#00F397"/>
<path d="M31.1 12.9412L47.05 28.6537C47.65 29.2412 47.65 30.1912 47.05 30.7662C46.4625 31.3537 45.5 31.3537 44.9 30.7662L30.025 16.1162L15.1 30.8162C14.5125 31.4037 13.55 31.4037 12.95 30.8162C12.35 30.2287 12.35 29.2787 12.95 28.6912L28.95 12.9412C29.5375 12.3537 30.5 12.3537 31.1 12.9412Z" fill="#F8312F"/>
<path d="M38.925 36.2525H33.575C32.975 36.2525 32.5 35.7775 32.5 35.1775V29.8275C32.5 29.24 32.975 28.7525 33.575 28.7525H38.925C39.5125 28.7525 40 29.2275 40 29.8275V35.1775C40 35.7775 39.525 36.2525 38.925 36.2525Z" fill="#83CBFF"/>
</svg>
