<svg width="50" height="50" viewBox="0 0 50 50" fill="none" xmlns="http://www.w3.org/2000/svg">
<rect width="50" height="50" rx="8" fill="#F5F5F5"/>
<g clip-path="url(#clip0_126_1261)">
<path d="M25.0066 16.786C20.4638 16.786 16.7995 20.4503 16.7995 24.9931C16.7995 29.536 20.4638 33.2003 25.0066 33.2003C29.5495 33.2003 33.2138 29.536 33.2138 24.9931C33.2138 20.4503 29.5495 16.786 25.0066 16.786ZM25.0066 30.3289C22.0709 30.3289 19.6709 27.936 19.6709 24.9931C19.6709 22.0503 22.0638 19.6574 25.0066 19.6574C27.9495 19.6574 30.3424 22.0503 30.3424 24.9931C30.3424 27.936 27.9424 30.3289 25.0066 30.3289ZM35.4638 16.4503C35.4638 17.5146 34.6066 18.3646 33.5495 18.3646C32.4852 18.3646 31.6352 17.5074 31.6352 16.4503C31.6352 15.3931 32.4924 14.536 33.5495 14.536C34.6066 14.536 35.4638 15.3931 35.4638 16.4503ZM40.8995 18.3931C40.7781 15.8289 40.1924 13.5574 38.3138 11.686C36.4424 9.81458 34.1709 9.22886 31.6066 9.10029C28.9638 8.95029 21.0424 8.95029 18.3995 9.10029C15.8424 9.22172 13.5709 9.80744 11.6924 11.6789C9.81378 13.5503 9.23521 15.8217 9.10664 18.386C8.95664 21.0289 8.95664 28.9503 9.10664 31.5931C9.22807 34.1574 9.81378 36.4289 11.6924 38.3003C13.5709 40.1717 15.8352 40.7574 18.3995 40.886C21.0424 41.036 28.9638 41.036 31.6066 40.886C34.1709 40.7646 36.4424 40.1789 38.3138 38.3003C40.1852 36.4289 40.7709 34.1574 40.8995 31.5931C41.0495 28.9503 41.0495 21.036 40.8995 18.3931ZM37.4852 34.4289C36.9281 35.8289 35.8495 36.9074 34.4424 37.4717C32.3352 38.3074 27.3352 38.1146 25.0066 38.1146C22.6781 38.1146 17.6709 38.3003 15.5709 37.4717C14.1709 36.9146 13.0924 35.836 12.5281 34.4289C11.6924 32.3217 11.8852 27.3217 11.8852 24.9931C11.8852 22.6646 11.6995 17.6574 12.5281 15.5574C13.0852 14.1574 14.1638 13.0789 15.5709 12.5146C17.6781 11.6789 22.6781 11.8717 25.0066 11.8717C27.3352 11.8717 32.3424 11.686 34.4424 12.5146C35.8424 13.0717 36.9209 14.1503 37.4852 15.5574C38.3209 17.6646 38.1281 22.6646 38.1281 24.9931C38.1281 27.3217 38.3209 32.3289 37.4852 34.4289Z" fill="#1C3F85"/>
</g>
<defs>
<clipPath id="clip0_126_1261">
<rect width="32" height="36.5714" fill="white" transform="translate(9 6.71436)"/>
</clipPath>
</defs>
</svg>
