<svg width="50" height="51" viewBox="0 0 50 51" fill="none" xmlns="http://www.w3.org/2000/svg">
<g clip-path="url(#clip0_126_1444)">
<path d="M25.4317 1.00108C26.2504 1.00108 27.0567 1.05421 27.8067 1.17921C28.5456 1.27439 29.2745 1.43545 29.9848 1.66046C30.6931 1.87296 31.3952 2.14691 32.091 2.48233C32.7692 2.80421 33.466 3.19796 34.1629 3.62608C35.341 4.37608 36.5004 4.98233 37.6817 5.46671C40.0065 6.39933 42.4658 6.95324 44.966 7.10733C46.2306 7.20108 47.54 7.249 48.8942 7.25108V19.7511C48.8942 22.124 48.591 24.3802 47.9848 26.5198C47.4023 28.633 46.5748 30.6707 45.5192 32.5917C44.468 34.5101 43.2241 36.3163 41.8067 37.9823C40.3684 39.6871 38.8102 41.287 37.1442 42.7698C35.4546 44.2552 33.6774 45.6379 31.8223 46.9105C29.9639 48.2021 28.0952 49.3927 26.216 50.4823L25.466 50.9292L24.716 50.4823C22.7884 49.3667 20.9056 48.1751 19.0723 46.9105C17.2072 45.6516 15.4292 44.2682 13.7504 42.7698C12.0854 41.2868 10.5283 39.6869 9.09103 37.9823C7.67838 36.3084 6.42895 34.5034 5.35978 32.5917C4.3231 30.6618 3.49649 28.6262 2.89416 26.5198C2.2881 24.3151 1.98738 22.0376 2.00041 19.7511V7.25108C3.35457 7.249 4.66499 7.20108 5.93166 7.10733C7.18079 7.02242 8.42178 6.84379 9.64416 6.57296C10.841 6.30421 12.0379 5.94796 13.216 5.46671C14.4382 4.97266 15.6103 4.36258 16.716 3.64483C18.091 2.75108 19.4848 2.09171 20.8598 1.65733C22.3407 1.20386 23.883 0.982487 25.4317 1.00108ZM45.7504 10.323C43.385 10.2072 41.0416 9.81172 38.7692 9.14483C36.5096 8.46905 34.357 7.47692 32.3754 6.19796C31.3473 5.52485 30.2317 4.99597 29.0598 4.62608C27.8885 4.27283 26.6707 4.09795 25.4473 4.10733C24.2148 4.09982 22.988 4.27463 21.8067 4.62608C20.6334 4.98494 19.5194 5.51458 18.5004 6.19796C16.5147 7.48262 14.3567 8.47901 12.091 9.15733C9.87645 9.80108 7.55457 10.1948 5.12541 10.3386V19.7667C5.12541 21.8355 5.39416 23.823 5.93166 25.7292C6.47972 27.6218 7.23425 29.4484 8.18166 31.1761C9.1408 32.9216 10.2714 34.5672 11.5567 36.0886C12.8598 37.623 14.2504 39.0511 15.7504 40.4073C17.2504 41.7636 18.8223 43.0198 20.466 44.1761C22.1264 45.3344 23.7869 46.3938 25.4473 47.3542C27.1472 46.3663 28.8039 45.306 30.4129 44.1761C32.0695 43.023 33.6499 41.7641 35.1442 40.4073C36.6442 39.0511 38.0379 37.623 39.341 36.0886C40.6263 34.5672 41.7569 32.9216 42.716 31.1761C43.6587 29.4503 44.402 27.6229 44.9317 25.7292C45.4861 23.7906 45.7617 21.783 45.7504 19.7667V10.323Z" fill="#1C3F85"/>
<path fill-rule="evenodd" clip-rule="evenodd" d="M36.8648 15.2156L35.4898 14.0343L34.2211 14.1437L20.5961 30.2312L15.9555 23.6062L14.7055 23.3937L13.2586 24.4281L13.043 25.6781L19.0086 34.1968L19.6867 34.5718L21.1148 34.6593L21.8461 34.3406L36.9555 16.4812L36.8648 15.2156Z" fill="#1C3F85"/>
</g>
<defs>
<clipPath id="clip0_126_1444">
<rect width="50" height="50" fill="white" transform="translate(0 0.5)"/>
</clipPath>
</defs>
</svg>
