<svg width="50" height="51" viewBox="0 0 50 51" fill="none" xmlns="http://www.w3.org/2000/svg">
<path d="M24.9993 25.4999C27.2095 25.4999 29.3291 24.6219 30.8919 23.0591C32.4547 21.4963 33.3327 19.3767 33.3327 17.1666C33.3327 14.9564 32.4547 12.8368 30.8919 11.274C29.3291 9.71123 27.2095 8.83325 24.9993 8.83325C22.7892 8.83325 20.6696 9.71123 19.1068 11.274C17.544 12.8368 16.666 14.9564 16.666 17.1666C16.666 19.3767 17.544 21.4963 19.1068 23.0591C20.6696 24.6219 22.7892 25.4999 24.9993 25.4999Z" stroke="#1C3F85" stroke-width="3.125" stroke-linecap="round" stroke-linejoin="round"/>
<path d="M45.8321 36.4999C45.8319 37.7534 45.3362 38.9561 44.453 39.8457C42.4196 41.8957 40.4467 44.0332 38.3363 46.0082C38.1006 46.2235 37.7911 46.3398 37.4719 46.3332C37.1528 46.3267 36.8484 46.1976 36.6217 45.9728L30.5425 39.8478C29.6584 38.9579 29.1621 37.7543 29.1621 36.4999C29.1621 35.2454 29.6584 34.0418 30.5425 33.1519C30.9835 32.7074 31.5081 32.3546 32.0862 32.1138C32.6642 31.8731 33.2841 31.7491 33.9103 31.7491C34.5364 31.7491 35.1564 31.8731 35.7344 32.1138C36.3124 32.3546 36.837 32.7074 37.278 33.1519L37.4988 33.3749L37.7196 33.1519C38.3819 32.4839 39.2278 32.0279 40.1499 31.8418C41.0719 31.6557 42.0285 31.7479 42.898 32.1068C43.7675 32.4656 44.5107 33.0749 45.0332 33.8571C45.5556 34.6393 45.8337 35.5592 45.8321 36.4999Z" stroke="#1C3F85" stroke-width="3.125" stroke-linejoin="round"/>
<path d="M10.416 42.1665V40.0832C10.4155 37.6227 11.0375 35.2021 12.2242 33.0467C13.4109 30.8913 15.1236 29.0712 17.203 27.7558C19.2823 26.4404 21.6607 25.6725 24.1166 25.5236C26.5726 25.3746 29.0263 25.8495 31.2493 26.904" stroke="#1C3F85" stroke-width="3.125" stroke-linecap="round" stroke-linejoin="round"/>
</svg>
