<svg width="50" height="50" viewBox="0 0 50 50" fill="none" xmlns="http://www.w3.org/2000/svg">
<rect width="50" height="50" rx="8" fill="#F5F5F5"/>
<g clip-path="url(#clip0_126_1264)">
<path d="M33.4054 16.4875C31.1607 14.2375 28.1714 13 24.9946 13C18.4375 13 13.1018 18.3357 13.1018 24.8929C13.1018 26.9875 13.6482 29.0339 14.6875 30.8393L13 37L19.3054 35.3446C21.0411 36.2929 22.9964 36.7911 24.9893 36.7911H24.9946C31.5464 36.7911 37 31.4554 37 24.8982C37 21.7214 35.65 18.7375 33.4054 16.4875ZM24.9946 34.7875C23.2161 34.7875 21.475 34.3107 19.9589 33.4107L19.6 33.1964L15.8607 34.1768L16.8571 30.5286L16.6214 30.1536C15.6304 28.5786 15.1107 26.7625 15.1107 24.8929C15.1107 19.4446 19.5464 15.0089 25 15.0089C27.6411 15.0089 30.1214 16.0375 31.9857 17.9071C33.85 19.7768 34.9964 22.2571 34.9911 24.8982C34.9911 30.3518 30.4429 34.7875 24.9946 34.7875ZM30.4161 27.3839C30.1214 27.2339 28.6589 26.5161 28.3857 26.4196C28.1125 26.3179 27.9143 26.2696 27.7161 26.5696C27.5179 26.8696 26.95 27.5339 26.7732 27.7375C26.6018 27.9357 26.425 27.9625 26.1304 27.8125C24.3839 26.9393 23.2375 26.2536 22.0857 24.2768C21.7804 23.7518 22.3911 23.7893 22.9589 22.6536C23.0554 22.4554 23.0071 22.2839 22.9321 22.1339C22.8571 21.9839 22.2625 20.5214 22.0161 19.9268C21.775 19.3482 21.5286 19.4286 21.3464 19.4179C21.175 19.4071 20.9768 19.4071 20.7786 19.4071C20.5804 19.4071 20.2589 19.4821 19.9857 19.7768C19.7125 20.0768 18.9464 20.7946 18.9464 22.2571C18.9464 23.7196 20.0125 25.1339 20.1571 25.3321C20.3071 25.5304 22.2518 28.5304 25.2357 29.8214C27.1214 30.6357 27.8607 30.7054 28.8036 30.5661C29.3768 30.4804 30.5607 29.8482 30.8071 29.1518C31.0536 28.4554 31.0536 27.8607 30.9786 27.7375C30.9089 27.6036 30.7107 27.5286 30.4161 27.3839Z" fill="#1C3F85"/>
</g>
<defs>
<clipPath id="clip0_126_1264">
<rect width="24" height="24" fill="white" transform="translate(13 13)"/>
</clipPath>
</defs>
</svg>
